<svg xmlns="http://www.w3.org/2000/svg" viewBox="0 0 128 128">
  <defs>
    <linearGradient id="g" x1="0" y1="0" x2="1" y2="1">
      <stop stop-color="#b8f36b"/>
      <stop offset="1" stop-color="#5d9c4a"/>
    </linearGradient>
  </defs>
  <rect width="128" height="128" rx="30" fill="#121620"/>
  <path d="M34 78c0-19 14-34 33-34 10 0 19 4 26 11l-8 9c-5-5-11-8-18-8-11 0-19 9-19 22 0 12 8 21 19 21 7 0 13-3 18-8l8 9c-7 7-16 11-26 11-19 0-33-14-33-33Z" fill="url(#g)"/>
  <circle cx="91" cy="37" r="7" fill="#f4f7fb"/>
</svg>